<svg width="161" height="165" viewBox="0 0 161 165" fill="none" xmlns="http://www.w3.org/2000/svg">
<g clip-path="url(#clip0)">
<path fill-rule="evenodd" clip-rule="evenodd" d="M106.48 73.5664C108.183 74.725 108.633 77.0507 107.468 78.7623C106.31 80.4655 103.984 80.9153 102.273 79.751C100.569 78.5924 100.12 76.2666 101.284 74.5551C102.451 72.8575 104.776 72.4077 106.48 73.5664ZM86.439 112.859C85.5807 112.698 84.728 112.529 83.8865 112.344C80.5452 111.655 77.2929 110.64 74.1736 109.341C70.7805 107.964 67.5842 106.297 64.5878 104.32C58.1703 100.099 52.6613 94.5253 48.0999 87.5764C7.17199 109.854 87.79 160.281 86.439 112.859ZM83.9069 12.2884L87.0705 26.9461C95.5544 28.7867 103.261 31.9125 110.072 36.4611C116.9 41.021 122.81 47.0008 127.682 54.5601L144.117 52.0012C145.675 51.755 147.138 52.8227 147.376 54.3754C147.488 55.117 147.315 55.8337 146.921 56.4125L133.403 76.5335C132.881 83.1687 131.475 88.7194 129.313 93.3561L134.228 94.7889C135.744 95.2274 136.622 96.8166 136.178 98.3407C135.74 99.8566 134.15 100.735 132.626 100.291L126.378 98.471C126.305 98.5785 126.232 98.6859 126.15 98.7878C123.652 102.265 120.614 105.024 117.116 107.18L120.064 109.814C121.25 110.863 121.35 112.672 120.298 113.844C119.256 115.021 117.441 115.129 116.269 114.078L111.629 109.93C110.974 110.198 110.309 110.447 109.633 110.676C103.826 112.688 97.9851 113.505 92.2925 113.321C89.4586 183.537 -12.7773 105.56 45.3309 82.3305C42.4477 76.257 40.9359 69.7498 41.2047 63.2565C41.2163 62.9016 41.2418 62.5441 41.2617 62.1948L37.1073 60.0702C35.7023 59.3442 35.1499 57.6138 35.8759 56.2089C36.6018 54.8039 38.3322 54.2515 39.7372 54.9774L42.2022 56.2431C43.2164 52.192 44.9871 48.22 47.6322 44.456L44.36 40.2345C43.3954 38.9856 43.6147 37.1876 44.8691 36.2147C46.1179 35.2501 47.916 35.4694 48.8889 36.7238L51.3582 39.9033C54.8207 36.2357 59.243 32.846 64.7324 29.8436L78.8113 11.1563C79.7579 9.88925 81.552 9.63422 82.8134 10.589C83.4027 11.0383 83.7688 11.6381 83.9069 12.2884ZM81.8749 29.979L79.6337 19.6013L68.953 33.7911C68.7114 34.1106 68.3981 34.3934 68.019 34.5951C62.5052 37.5446 58.194 40.913 54.9456 44.5327L66.5245 59.4605C67.4891 60.7093 67.2699 62.5073 66.0154 63.4803C64.7666 64.4449 62.9685 64.2256 61.9956 62.9711L51.3704 49.2727C49.4246 52.3998 48.1598 55.6636 47.4854 58.9662L60.7409 65.758C62.1458 66.484 62.6982 68.2143 61.9723 69.6193C61.2463 71.0243 59.516 71.5767 58.111 70.8507L46.9121 65.1072C46.974 70.3499 48.3782 75.6108 50.8393 80.5625C53.5833 86.0938 57.6403 91.2241 62.5928 95.5002C66.9703 99.2883 72.053 102.395 77.5527 104.516C79.6698 105.315 81.8852 105.987 84.171 106.539C91.4143 108.176 99.1454 108.065 106.804 105.608L99.1163 98.7208C97.9307 97.6724 97.8311 95.8631 98.8822 94.6913C99.9306 93.5057 101.74 93.4061 102.912 94.4572L112.638 103.166C115.674 101.53 118.317 99.4218 120.508 96.7519L105.038 92.2388C103.522 91.8002 102.643 90.211 103.088 88.6869C103.526 87.1711 105.115 86.2928 106.639 86.737L123.748 91.7231C125.927 87.4 127.306 82.0126 127.762 75.3685C127.791 74.8807 127.951 74.3968 128.243 73.9668L138.549 58.6391L126.869 60.4658C125.707 60.7157 124.469 60.2243 123.819 59.1531C119.2 51.5601 113.531 45.6354 106.902 41.2104C100.272 36.7855 92.6421 33.8324 84.1313 32.1912C83.0405 31.9813 82.1303 31.1324 81.8749 29.979ZM81.1036 72.1114C79.7972 71.2227 79.4506 69.4388 80.3449 68.1242C81.2336 66.8178 83.0175 66.4711 84.3321 67.3654L91.6661 72.3544C92.9725 73.2431 93.3191 75.027 92.4248 76.3417C91.5361 77.6481 89.7522 77.9947 88.4376 77.1004L87.1146 76.2005C86.2607 77.6514 85.6819 79.0356 85.337 80.3249C84.8253 82.2505 84.8789 83.9318 85.3761 85.3344C85.8598 86.7035 86.7616 87.8492 87.985 88.7177C88.9246 89.381 90.0597 89.8992 91.3546 90.2358C92.8847 90.6357 93.7963 92.2113 93.3882 93.7357C92.9884 95.2658 91.4128 96.1775 89.8883 95.7694C87.9488 95.2603 86.1895 94.4506 84.6741 93.3713C82.4864 91.8226 80.8527 89.7438 79.9747 87.2476C79.5343 85.9926 79.2861 84.6506 79.2523 83.2246C77.9711 83.7924 76.7092 84.0829 75.4605 84.1405C71.2984 84.3207 67.7788 81.9386 64.3436 78.8277C63.1692 77.7628 63.0779 75.959 64.1429 74.7847C65.2078 73.6103 67.0115 73.519 68.1859 74.5839C70.6392 76.8091 72.9946 78.5203 75.2062 78.4162C77.2123 78.3295 79.5204 76.8034 82.3134 72.9465L81.098 72.1197L81.1036 72.1114ZM77.9956 54.1897C79.6988 55.3484 80.1486 57.6741 78.9843 59.3856C77.8257 61.0889 75.4999 61.5387 73.7884 60.3744C72.0851 59.2157 71.6354 56.89 72.7997 55.1785C73.9583 53.4752 76.284 53.0254 77.9956 54.1897Z" fill="#0071E3" stroke="#0071E3" stroke-width="0.216" stroke-miterlimit="2.6131"/>
</g>
<defs>
<clipPath id="clip0">
<rect width="110.91" height="123.1" fill="white" transform="translate(69.2385) rotate(34.2259)"/>
</clipPath>
</defs>
</svg>
