<svg width="173" height="173" viewBox="0 0 173 173" fill="none" xmlns="http://www.w3.org/2000/svg">
<g clip-path="url(#clip0)">
<path d="M94.4879 43.1766C98.3755 42.6907 101.336 41.51 103.145 39.4973C104.926 37.5173 105.731 34.5466 105.406 30.4014C105.269 28.7302 106.517 27.2681 108.181 27.1363C108.743 27.0924 109.277 27.1985 109.757 27.431C111.126 27.9733 112.49 28.5719 113.848 29.2268C115.225 29.8911 116.574 30.5882 117.885 31.3366C118.006 31.3983 118.123 31.4693 118.225 31.5449C133.4 40.3263 143.611 54.4163 147.855 70.1494C152.108 85.9108 150.381 103.296 141.664 118.603L141.673 118.608C141.612 118.73 141.54 118.847 141.465 118.949C132.665 134.167 118.575 144.424 102.857 148.708C87.1063 153.011 69.7561 151.308 54.4917 142.611C54.3703 142.549 54.2537 142.478 54.1512 142.402C38.953 133.621 28.7861 119.259 24.5955 103.282C20.391 87.2863 22.1862 69.6523 30.9026 54.3454C31.6635 52.8479 33.4811 52.2524 34.9746 53.0112C35.348 53.2009 35.6647 53.456 35.9107 53.7576C38.9109 56.6596 42.168 58.4086 45.2477 58.8194C48.0419 59.191 50.7415 58.4313 52.9729 56.3739C54.1618 55.2822 55.9794 55.3108 57.1141 56.429L57.1189 56.4196C61.7468 60.9258 66.5725 63.4247 71.1163 64.1436C73.8679 64.576 76.5119 64.3649 78.9355 63.5474C81.3685 62.7346 83.5904 61.3201 85.5025 59.3595C88.5998 56.1759 90.8552 51.5519 91.7938 45.7054C92.0243 44.3271 93.1517 43.3102 94.4879 43.1766ZM82.199 86.9662C83.5162 84.3737 86.6723 83.3395 89.258 84.6532C91.8437 85.9669 92.8695 89.1258 91.5523 91.7183C90.2351 94.3109 87.079 95.345 84.4933 94.0313C81.9076 92.7176 80.8865 89.5494 82.199 86.9662ZM91.1281 117.079C92.7306 113.925 96.5819 112.655 99.737 114.258C102.892 115.861 104.142 119.711 102.535 122.874C100.928 126.038 97.0813 127.298 93.9262 125.695C90.7711 124.092 89.5209 120.242 91.1281 117.079ZM53.7558 82.5948C55.0159 80.1146 58.0311 79.1266 60.5048 80.3834C62.9785 81.6402 63.9585 84.658 62.6984 87.1383C61.4382 89.6185 58.423 90.6065 55.9493 89.3497C53.4757 88.0929 52.5004 85.0657 53.7558 82.5948ZM86.9735 18.7167C87.915 16.8635 90.1694 16.1249 92.0176 17.0639C93.8659 18.0029 94.5986 20.2593 93.6571 22.1124C92.7156 23.9656 90.4612 24.7042 88.6129 23.7652C86.7692 22.8403 86.032 20.5698 86.9735 18.7167ZM65.9036 38.2507C67.3207 35.4617 70.7163 34.349 73.498 35.7623C76.2798 37.1756 77.3834 40.5742 75.9664 43.3633C74.5493 46.1524 71.1537 47.265 68.372 45.8517C65.5996 44.4431 64.4866 41.0398 65.9036 38.2507ZM47.0516 23.7624C48.5685 20.7767 52.2177 19.581 55.1955 21.0939C58.1732 22.6068 59.3593 26.2592 57.8424 29.2448C56.3255 32.2305 52.6763 33.4262 49.6985 31.9133C46.7162 30.3863 45.5347 26.748 47.0516 23.7624ZM111.752 81.4331C113.858 77.2869 118.921 75.6202 123.066 77.7259C127.201 79.8269 128.854 84.8942 126.743 89.0498C124.632 93.2053 119.574 94.8627 115.429 92.757C111.284 90.6513 109.64 85.5887 111.752 81.4331ZM58.8413 107.328C61.1238 102.835 66.6047 101.04 71.0853 103.316C75.566 105.592 77.3474 111.078 75.0649 115.571C72.7824 120.063 67.3015 121.859 62.8208 119.583C58.3495 117.311 56.5588 111.82 58.8413 107.328ZM107.641 43.5476C105.179 46.2889 101.69 48.0016 97.3361 48.851C96.0065 54.9816 93.3455 59.9648 89.8233 63.5919C87.2407 66.248 84.195 68.1743 80.8462 69.2872C77.4974 70.4001 73.8782 70.7044 70.1486 70.1165C65.0806 69.3197 59.8236 66.8608 54.8289 62.5451C51.6745 64.5928 48.1038 65.3103 44.4203 64.8166C41.0692 64.3622 37.6601 62.8892 34.4689 60.4789C28.0318 73.5878 26.9144 88.2927 30.4447 101.732C34.2482 116.229 43.446 129.239 57.1887 137.186L57.2354 137.21L57.352 137.281C71.226 145.225 86.9936 146.783 101.28 142.89C115.514 139.006 128.28 129.713 136.245 115.909L136.269 115.862L136.34 115.745C144.305 101.847 145.9 86.0416 142.034 71.737C138.186 57.4888 128.935 44.7226 115.169 36.7746L115.122 36.7509L115.006 36.6799C113.788 35.9789 112.584 35.3436 111.384 34.7694C110.983 38.357 109.705 41.2641 107.641 43.5476Z" fill="#F33A12"/>
</g>
<defs>
<clipPath id="clip0">
<rect width="129" height="128" fill="white" transform="translate(0 115.008) rotate(-63.0664)"/>
</clipPath>
</defs>
</svg>
