<svg width="180" height="180" viewBox="0 0 180 180" fill="none" xmlns="http://www.w3.org/2000/svg">
<g clip-path="url(#clip0)">
<path d="M124.892 116.632C123.589 120.326 123.322 123.502 124.313 126.021C125.288 128.499 127.586 130.547 131.439 132.109C132.995 132.733 133.745 134.503 133.119 136.051C132.907 136.573 132.574 137.003 132.151 137.329C131.054 138.311 129.909 139.263 128.716 140.186C127.506 141.121 126.28 142.015 125.024 142.853C124.915 142.934 124.799 143.007 124.686 143.065C110.047 152.714 92.8787 155.549 76.9078 152.312C60.9077 149.071 46.1282 139.754 36.3323 125.115L36.3239 125.121C36.2427 125.011 36.1699 124.895 36.1118 124.781C26.4334 110.107 23.5567 92.9182 26.7506 76.9432C29.9425 60.9304 39.2216 46.1715 53.8251 36.405C53.9345 36.324 54.0502 36.2514 54.1636 36.1935C68.8128 26.5239 86.2047 23.8495 102.37 27.2429C118.558 30.6322 133.529 40.1209 143.325 54.7604C144.325 56.1104 144.045 58.0025 142.698 58.9993C142.362 59.2485 141.992 59.4177 141.612 59.503C137.675 60.8895 134.655 63.0212 132.911 65.5924C131.329 67.9258 130.802 70.6803 131.645 73.596C132.09 75.1475 131.252 76.7606 129.744 77.2758L129.75 77.2843C123.651 79.4097 119.258 82.6093 116.584 86.3525C114.967 88.6206 113.974 91.08 113.622 93.6134C113.262 96.1531 113.534 98.773 114.433 101.36C115.896 105.554 119.024 109.638 123.834 113.091C124.964 113.914 125.37 115.377 124.892 116.632ZM91.2145 86.064C92.9448 88.4012 92.459 91.6867 90.128 93.4124C87.797 95.1381 84.5128 94.6436 82.7825 92.3065C81.0522 89.9693 81.538 86.6838 83.869 84.9581C86.2 83.2324 89.4905 83.7353 91.2145 86.064ZM60.2866 80.5904C62.3917 83.4338 61.8059 87.4465 58.9616 89.5522C56.1172 91.658 52.1146 91.0553 50.0033 88.2035C47.892 85.3516 48.484 81.3474 51.3284 79.2417C54.1727 77.1359 58.1753 77.7385 60.2866 80.5904ZM107.84 62.575C109.495 64.8109 109.031 67.9497 106.801 69.6007C104.571 71.2517 101.433 70.7793 99.7778 68.5433C98.1225 66.3074 98.5866 63.1686 100.817 61.5176C103.047 59.8667 106.19 60.3475 107.84 62.575ZM150.131 120.844C151.368 122.515 151.021 124.861 149.355 126.095C147.688 127.328 145.343 126.975 144.106 125.305C142.869 123.634 143.216 121.287 144.882 120.054C146.534 118.818 148.894 119.173 150.131 120.844ZM142.076 93.2643C143.937 95.7786 143.415 99.3135 140.907 101.17C138.399 103.027 134.866 102.495 133.004 99.9802C131.143 97.4659 131.666 93.931 134.173 92.0745C136.673 90.2242 140.215 90.7499 142.076 93.2643ZM163.463 82.8773C165.456 85.5688 164.894 89.3677 162.21 91.3551C159.526 93.3424 155.728 92.7707 153.736 90.0792C151.743 87.3876 152.305 83.5888 154.989 81.6014C157.688 79.6162 161.471 80.1857 163.463 82.8773ZM82.9533 114.973C85.7205 118.711 84.9482 123.985 81.2119 126.751C77.4839 129.511 72.212 128.725 69.4385 124.978C66.6651 121.232 67.4436 115.967 71.18 113.201C74.9163 110.434 80.1799 111.227 82.9533 114.973ZM83.4419 56.0679C86.4402 60.1179 85.5966 65.8235 81.5573 68.8139C77.518 71.8043 71.8146 70.9456 68.8163 66.8956C65.818 62.8457 66.6616 57.14 70.7009 54.1496C74.7318 51.1655 80.4436 52.0179 83.4419 56.0679ZM118.68 128.231C117.329 124.804 117.356 120.917 118.543 116.643C113.653 112.713 110.385 108.105 108.715 103.333C107.494 99.8354 107.132 96.2499 107.634 92.7568C108.135 89.2638 109.481 85.8903 111.674 82.8168C114.652 78.6396 119.202 75.0363 125.295 72.4976C124.873 68.7606 125.828 65.2457 127.916 62.1715C129.82 59.377 132.662 56.9859 136.244 55.2087C127.396 43.5906 114.741 36.0177 101.141 33.168C86.4735 30.09 70.7242 32.5019 57.4714 41.2422L57.4293 41.2734L57.3137 41.3459C44.0058 50.2055 35.5635 63.6135 32.6598 78.1328C29.7711 92.6019 32.377 108.176 41.165 121.471L41.1963 121.514L41.2691 121.629C50.1407 134.968 63.5661 143.459 78.09 146.395C92.5552 149.323 108.11 146.754 121.374 137.993L121.416 137.962L121.532 137.889C122.703 137.114 123.809 136.321 124.859 135.504C121.83 133.541 119.8 131.099 118.68 128.231Z" fill="#F1C40F"/>
</g>
<defs>
<clipPath id="clip0">
<rect width="129" height="128" fill="white" transform="translate(102.875) rotate(53.4863)"/>
</clipPath>
</defs>
</svg>
