<svg width="217" height="173" viewBox="0 0 217 173" fill="none" xmlns="http://www.w3.org/2000/svg">
<ellipse cx="117.783" cy="54.5" rx="98.5" ry="54.5" fill="white"/>
<path fill-rule="evenodd" clip-rule="evenodd" d="M46.1369 137.53C78.5502 154.593 114.641 150.819 129.642 127.64C145.871 102.565 131.274 64.2755 97.0394 42.1186C82.4955 32.7057 66.747 27.7186 52.198 27.0184C79.6794 53.1642 88.6483 90.2927 71.6051 116.626C65.4379 126.155 56.5862 133.156 46.1369 137.53Z" fill="white"/>
<path d="M94.7744 9.20312L98.958 19.6445L103.142 9.20312H105.33V22H103.643V17.0166L103.801 11.6377L99.5996 22H98.3076L94.1153 11.6641L94.2823 17.0166V22H92.5948V9.20312H94.7744ZM109.733 12.4902V23.0986C109.733 24.9268 108.904 25.8408 107.246 25.8408C106.889 25.8408 106.558 25.7881 106.253 25.6826V24.3818C106.44 24.4287 106.687 24.4521 106.991 24.4521C107.355 24.4521 107.63 24.3525 107.817 24.1533C108.011 23.96 108.107 23.6201 108.107 23.1338V12.4902H109.733ZM107.94 9.96777C107.94 9.70996 108.02 9.49023 108.178 9.30859C108.342 9.12109 108.579 9.02734 108.89 9.02734C109.206 9.02734 109.446 9.11816 109.61 9.2998C109.774 9.48145 109.856 9.7041 109.856 9.96777C109.856 10.2314 109.774 10.4512 109.61 10.627C109.446 10.8027 109.206 10.8906 108.89 10.8906C108.573 10.8906 108.336 10.8027 108.178 10.627C108.02 10.4512 107.94 10.2314 107.94 9.96777ZM118.232 22C118.139 21.8125 118.063 21.4785 118.004 20.998C117.248 21.7832 116.346 22.1758 115.297 22.1758C114.359 22.1758 113.589 21.9121 112.985 21.3848C112.388 20.8516 112.089 20.1777 112.089 19.3633C112.089 18.373 112.464 17.6055 113.214 17.0605C113.97 16.5098 115.03 16.2344 116.396 16.2344H117.978V15.4873C117.978 14.9189 117.808 14.4678 117.468 14.1338C117.128 13.7939 116.627 13.624 115.965 13.624C115.385 13.624 114.898 13.7705 114.506 14.0635C114.113 14.3564 113.917 14.7109 113.917 15.127H112.282C112.282 14.6523 112.449 14.1953 112.783 13.7559C113.123 13.3105 113.58 12.959 114.154 12.7012C114.734 12.4434 115.37 12.3145 116.062 12.3145C117.157 12.3145 118.016 12.5898 118.637 13.1406C119.258 13.6855 119.58 14.4385 119.604 15.3994V19.7764C119.604 20.6494 119.715 21.3438 119.938 21.8594V22H118.232ZM115.534 20.7607C116.044 20.7607 116.527 20.6289 116.984 20.3652C117.441 20.1016 117.772 19.7588 117.978 19.3369V17.3857H116.703C114.711 17.3857 113.715 17.9688 113.715 19.1348C113.715 19.6445 113.885 20.043 114.225 20.3301C114.564 20.6172 115.001 20.7607 115.534 20.7607ZM113.407 9.9502C113.407 9.68652 113.486 9.4668 113.645 9.29102C113.809 9.10938 114.049 9.01855 114.365 9.01855C114.682 9.01855 114.922 9.10938 115.086 9.29102C115.25 9.4668 115.332 9.68652 115.332 9.9502C115.332 10.2139 115.25 10.4336 115.086 10.6094C114.922 10.7852 114.682 10.873 114.365 10.873C114.049 10.873 113.809 10.7852 113.645 10.6094C113.486 10.4336 113.407 10.2139 113.407 9.9502ZM117.187 9.96777C117.187 9.7041 117.266 9.48145 117.424 9.2998C117.588 9.11816 117.828 9.02734 118.145 9.02734C118.461 9.02734 118.701 9.11816 118.865 9.2998C119.029 9.48145 119.111 9.7041 119.111 9.96777C119.111 10.2314 119.029 10.4512 118.865 10.627C118.701 10.8027 118.461 10.8906 118.145 10.8906C117.828 10.8906 117.588 10.8027 117.424 10.627C117.266 10.4512 117.187 10.2314 117.187 9.96777ZM128.023 21.0596C127.391 21.8037 126.462 22.1758 125.237 22.1758C124.224 22.1758 123.45 21.8828 122.917 21.2969C122.39 20.7051 122.123 19.832 122.117 18.6777V12.4902H123.743V18.6338C123.743 20.0752 124.329 20.7959 125.501 20.7959C126.743 20.7959 127.569 20.333 127.98 19.4072V12.4902H129.605V22H128.059L128.023 21.0596ZM137.955 21.0596C137.322 21.8037 136.394 22.1758 135.169 22.1758C134.155 22.1758 133.382 21.8828 132.849 21.2969C132.321 20.7051 132.055 19.832 132.049 18.6777V12.4902H133.675V18.6338C133.675 20.0752 134.261 20.7959 135.433 20.7959C136.675 20.7959 137.501 20.333 137.911 19.4072V12.4902H139.537V22H137.99L137.955 21.0596ZM143.835 18.3877H142.367L142.253 9.20312H143.958L143.835 18.3877ZM142.191 21.1826C142.191 20.9189 142.271 20.6992 142.429 20.5234C142.593 20.3418 142.833 20.251 143.149 20.251C143.466 20.251 143.706 20.3418 143.87 20.5234C144.034 20.6992 144.116 20.9189 144.116 21.1826C144.116 21.4463 144.034 21.666 143.87 21.8418C143.706 22.0117 143.466 22.0967 143.149 22.0967C142.833 22.0967 142.593 22.0117 142.429 21.8418C142.271 21.666 142.191 21.4463 142.191 21.1826ZM40.9678 30.2031L45.1514 40.6445L49.335 30.2031H51.5235V43H49.836V38.0166L49.9942 32.6377L45.793 43H44.501L40.3086 32.6641L40.4756 38.0166V43H38.7881V30.2031H40.9678ZM60.1192 43C60.0254 42.8125 59.9492 42.4785 59.8907 41.998C59.1348 42.7832 58.2325 43.1758 57.1836 43.1758C56.2461 43.1758 55.4756 42.9121 54.8721 42.3848C54.2744 41.8516 53.9756 41.1777 53.9756 40.3633C53.9756 39.373 54.3506 38.6055 55.1006 38.0605C55.8565 37.5098 56.917 37.2344 58.2823 37.2344H59.8643V36.4873C59.8643 35.9189 59.6944 35.4678 59.3545 35.1338C59.0147 34.7939 58.5137 34.624 57.8516 34.624C57.2715 34.624 56.7852 34.7705 56.3926 35.0635C56 35.3564 55.8037 35.7109 55.8037 36.127H54.169C54.169 35.6523 54.336 35.1953 54.67 34.7559C55.0098 34.3105 55.4668 33.959 56.041 33.7012C56.6211 33.4434 57.2569 33.3145 57.9483 33.3145C59.044 33.3145 59.9024 33.5898 60.5235 34.1406C61.1446 34.6855 61.4668 35.4385 61.4903 36.3994V40.7764C61.4903 41.6494 61.6016 42.3438 61.8242 42.8594V43H60.1192ZM57.4209 41.7607C57.9307 41.7607 58.4141 41.6289 58.8711 41.3652C59.3282 41.1016 59.6592 40.7588 59.8643 40.3369V38.3857H58.5899C56.5977 38.3857 55.6016 38.9688 55.6016 40.1348C55.6016 40.6445 55.7715 41.043 56.1114 41.3301C56.4512 41.6172 56.8877 41.7607 57.4209 41.7607ZM55.294 30.9502C55.294 30.6865 55.3731 30.4668 55.5313 30.291C55.6953 30.1094 55.9356 30.0186 56.252 30.0186C56.5684 30.0186 56.8086 30.1094 56.9727 30.291C57.1367 30.4668 57.2188 30.6865 57.2188 30.9502C57.2188 31.2139 57.1367 31.4336 56.9727 31.6094C56.8086 31.7852 56.5684 31.873 56.252 31.873C55.9356 31.873 55.6953 31.7852 55.5313 31.6094C55.3731 31.4336 55.294 31.2139 55.294 30.9502ZM59.0733 30.9678C59.0733 30.7041 59.1524 30.4814 59.3106 30.2998C59.4746 30.1182 59.7149 30.0273 60.0313 30.0273C60.3477 30.0273 60.5879 30.1182 60.752 30.2998C60.916 30.4814 60.9981 30.7041 60.9981 30.9678C60.9981 31.2314 60.916 31.4512 60.752 31.627C60.5879 31.8027 60.3477 31.8906 60.0313 31.8906C59.7149 31.8906 59.4746 31.8027 59.3106 31.627C59.1524 31.4512 59.0733 31.2314 59.0733 30.9678ZM65.5772 33.4902L65.6299 34.6855C66.3565 33.7715 67.3057 33.3145 68.4776 33.3145C70.4873 33.3145 71.501 34.4482 71.5186 36.7158V43H69.8926V36.707C69.8867 36.0215 69.7285 35.5146 69.418 35.1865C69.1133 34.8584 68.6358 34.6943 67.9854 34.6943C67.458 34.6943 66.9951 34.835 66.5967 35.1162C66.1983 35.3975 65.8877 35.7666 65.6651 36.2236V43H64.0391V33.4902H65.5772ZM73.584 38.166C73.584 36.6836 73.9268 35.5059 74.6123 34.6328C75.2979 33.7539 76.2061 33.3145 77.3369 33.3145C78.4971 33.3145 79.4024 33.7246 80.0528 34.5449L80.1319 33.4902H81.6172V42.7715C81.6172 44.002 81.251 44.9717 80.5186 45.6807C79.792 46.3896 78.8135 46.7441 77.583 46.7441C76.8975 46.7441 76.2266 46.5977 75.5703 46.3047C74.9141 46.0117 74.4131 45.6104 74.0674 45.1006L74.9112 44.125C75.6084 44.9863 76.461 45.417 77.4688 45.417C78.2598 45.417 78.875 45.1943 79.3145 44.749C79.7598 44.3037 79.9825 43.6768 79.9825 42.8682V42.0508C79.3321 42.8008 78.4444 43.1758 77.3194 43.1758C76.2061 43.1758 75.3037 42.7275 74.6123 41.8311C73.9268 40.9346 73.584 39.7129 73.584 38.166ZM75.2188 38.3506C75.2188 39.4229 75.4385 40.2666 75.878 40.8818C76.3174 41.4912 76.9326 41.7959 77.7237 41.7959C78.7491 41.7959 79.502 41.3301 79.9825 40.3984V36.0566C79.4844 35.1484 78.7373 34.6943 77.7412 34.6943C76.9502 34.6943 76.3321 35.002 75.8867 35.6172C75.4414 36.2324 75.2188 37.1436 75.2188 38.3506ZM89.9492 42.0596C89.3164 42.8037 88.3877 43.1758 87.1631 43.1758C86.1494 43.1758 85.376 42.8828 84.8428 42.2969C84.3155 41.7051 84.0489 40.832 84.043 39.6777V33.4902H85.669V39.6338C85.669 41.0752 86.2549 41.7959 87.4268 41.7959C88.669 41.7959 89.4951 41.333 89.9053 40.4072V33.4902H91.5313V43H89.9844L89.9492 42.0596ZM104.346 43C104.252 42.8125 104.176 42.4785 104.117 41.998C103.361 42.7832 102.459 43.1758 101.41 43.1758C100.473 43.1758 99.7022 42.9121 99.0987 42.3848C98.501 41.8516 98.2022 41.1777 98.2022 40.3633C98.2022 39.373 98.5772 38.6055 99.3272 38.0605C100.083 37.5098 101.144 37.2344 102.509 37.2344H104.091V36.4873C104.091 35.9189 103.921 35.4678 103.581 35.1338C103.241 34.7939 102.74 34.624 102.078 34.624C101.498 34.624 101.012 34.7705 100.619 35.0635C100.227 35.3564 100.03 35.7109 100.03 36.127H98.3955C98.3955 35.6523 98.5625 35.1953 98.8965 34.7559C99.2364 34.3105 99.6934 33.959 100.268 33.7012C100.848 33.4434 101.483 33.3145 102.175 33.3145C103.271 33.3145 104.129 33.5898 104.75 34.1406C105.371 34.6855 105.693 35.4385 105.717 36.3994V40.7764C105.717 41.6494 105.828 42.3438 106.051 42.8594V43H104.346ZM101.647 41.7607C102.157 41.7607 102.641 41.6289 103.098 41.3652C103.555 41.1016 103.886 40.7588 104.091 40.3369V38.3857H102.816C100.824 38.3857 99.8282 38.9688 99.8282 40.1348C99.8282 40.6445 99.9981 41.043 100.338 41.3301C100.678 41.6172 101.114 41.7607 101.647 41.7607ZM110.032 43H108.406V29.5H110.032V43ZM118.514 42.0596C117.881 42.8037 116.952 43.1758 115.728 43.1758C114.714 43.1758 113.94 42.8828 113.407 42.2969C112.88 41.7051 112.613 40.832 112.607 39.6777V33.4902H114.233V39.6338C114.233 41.0752 114.819 41.7959 115.991 41.7959C117.233 41.7959 118.06 41.333 118.47 40.4072V33.4902H120.096V43H118.549L118.514 42.0596ZM128.111 40.4775C128.111 40.0381 127.944 39.6982 127.61 39.458C127.282 39.2119 126.705 39.001 125.879 38.8252C125.059 38.6494 124.405 38.4385 123.919 38.1924C123.439 37.9463 123.081 37.6533 122.847 37.3135C122.618 36.9736 122.504 36.5693 122.504 36.1006C122.504 35.3213 122.832 34.6621 123.488 34.123C124.15 33.584 124.994 33.3145 126.02 33.3145C127.098 33.3145 127.971 33.5928 128.639 34.1494C129.313 34.7061 129.649 35.418 129.649 36.2852H128.015C128.015 35.8398 127.824 35.4561 127.443 35.1338C127.068 34.8115 126.594 34.6504 126.02 34.6504C125.428 34.6504 124.965 34.7793 124.631 35.0371C124.297 35.2949 124.13 35.6318 124.13 36.0479C124.13 36.4404 124.285 36.7363 124.596 36.9355C124.906 37.1348 125.466 37.3252 126.274 37.5068C127.089 37.6885 127.748 37.9053 128.252 38.1572C128.756 38.4092 129.128 38.7139 129.368 39.0713C129.614 39.4229 129.737 39.8535 129.737 40.3633C129.737 41.2129 129.397 41.8955 128.718 42.4111C128.038 42.9209 127.156 43.1758 126.072 43.1758C125.311 43.1758 124.637 43.041 124.051 42.7715C123.465 42.502 123.005 42.127 122.671 41.6465C122.343 41.1602 122.179 40.6357 122.179 40.0732H123.805C123.834 40.6182 124.051 41.0518 124.455 41.374C124.865 41.6904 125.404 41.8486 126.072 41.8486C126.688 41.8486 127.18 41.7256 127.549 41.4795C127.924 41.2275 128.111 40.8936 128.111 40.4775ZM134.062 31.1875V33.4902H135.837V34.7471H134.062V40.6445C134.062 41.0254 134.141 41.3125 134.299 41.5059C134.457 41.6934 134.727 41.7871 135.107 41.7871C135.295 41.7871 135.553 41.752 135.881 41.6816V43C135.453 43.1172 135.037 43.1758 134.633 43.1758C133.906 43.1758 133.358 42.9561 132.989 42.5166C132.62 42.0771 132.436 41.4531 132.436 40.6445V34.7471H130.704V33.4902H132.436V31.1875H134.062ZM143.615 43C143.522 42.8125 143.445 42.4785 143.387 41.998C142.631 42.7832 141.729 43.1758 140.68 43.1758C139.742 43.1758 138.972 42.9121 138.368 42.3848C137.771 41.8516 137.472 41.1777 137.472 40.3633C137.472 39.373 137.847 38.6055 138.597 38.0605C139.353 37.5098 140.413 37.2344 141.778 37.2344H143.36V36.4873C143.36 35.9189 143.19 35.4678 142.851 35.1338C142.511 34.7939 142.01 34.624 141.348 34.624C140.768 34.624 140.281 34.7705 139.889 35.0635C139.496 35.3564 139.3 35.7109 139.3 36.127H137.665C137.665 35.6523 137.832 35.1953 138.166 34.7559C138.506 34.3105 138.963 33.959 139.537 33.7012C140.117 33.4434 140.753 33.3145 141.444 33.3145C142.54 33.3145 143.398 33.5898 144.02 34.1406C144.641 34.6855 144.963 35.4385 144.986 36.3994V40.7764C144.986 41.6494 145.098 42.3438 145.32 42.8594V43H143.615ZM140.917 41.7607C141.427 41.7607 141.91 41.6289 142.367 41.3652C142.824 41.1016 143.155 40.7588 143.36 40.3369V38.3857H142.086C140.094 38.3857 139.098 38.9688 139.098 40.1348C139.098 40.6445 139.268 41.043 139.607 41.3301C139.947 41.6172 140.384 41.7607 140.917 41.7607ZM149.064 33.4902L149.108 34.5449C149.806 33.7246 150.746 33.3145 151.93 33.3145C153.26 33.3145 154.165 33.8242 154.646 34.8438C154.962 34.3867 155.372 34.0176 155.876 33.7363C156.386 33.4551 156.986 33.3145 157.678 33.3145C159.764 33.3145 160.824 34.4189 160.859 36.6279V43H159.233V36.7246C159.233 36.0449 159.078 35.5381 158.768 35.2041C158.457 34.8643 157.936 34.6943 157.203 34.6943C156.6 34.6943 156.099 34.876 155.7 35.2393C155.302 35.5967 155.07 36.0801 155.006 36.6895V43H153.371V36.7686C153.371 35.3857 152.694 34.6943 151.341 34.6943C150.274 34.6943 149.545 35.1484 149.152 36.0566V43H147.526V33.4902H149.064ZM165.087 43H163.461V33.4902H165.087V43ZM163.329 30.9678C163.329 30.7041 163.408 30.4814 163.566 30.2998C163.73 30.1182 163.971 30.0273 164.287 30.0273C164.604 30.0273 164.844 30.1182 165.008 30.2998C165.172 30.4814 165.254 30.7041 165.254 30.9678C165.254 31.2314 165.172 31.4512 165.008 31.627C164.844 31.8027 164.604 31.8906 164.287 31.8906C163.971 31.8906 163.73 31.8027 163.566 31.627C163.408 31.4512 163.329 31.2314 163.329 30.9678ZM173.234 40.4775C173.234 40.0381 173.067 39.6982 172.733 39.458C172.405 39.2119 171.828 39.001 171.002 38.8252C170.182 38.6494 169.528 38.4385 169.042 38.1924C168.562 37.9463 168.204 37.6533 167.97 37.3135C167.741 36.9736 167.627 36.5693 167.627 36.1006C167.627 35.3213 167.955 34.6621 168.611 34.123C169.273 33.584 170.117 33.3145 171.143 33.3145C172.221 33.3145 173.094 33.5928 173.762 34.1494C174.436 34.7061 174.772 35.418 174.772 36.2852H173.138C173.138 35.8398 172.947 35.4561 172.566 35.1338C172.191 34.8115 171.717 34.6504 171.143 34.6504C170.551 34.6504 170.088 34.7793 169.754 35.0371C169.42 35.2949 169.253 35.6318 169.253 36.0479C169.253 36.4404 169.408 36.7363 169.719 36.9355C170.029 37.1348 170.589 37.3252 171.397 37.5068C172.212 37.6885 172.871 37.9053 173.375 38.1572C173.879 38.4092 174.251 38.7139 174.491 39.0713C174.737 39.4229 174.86 39.8535 174.86 40.3633C174.86 41.2129 174.521 41.8955 173.841 42.4111C173.161 42.9209 172.279 43.1758 171.195 43.1758C170.434 43.1758 169.76 43.041 169.174 42.7715C168.588 42.502 168.128 42.127 167.794 41.6465C167.466 41.1602 167.302 40.6357 167.302 40.0732H168.928C168.957 40.6182 169.174 41.0518 169.578 41.374C169.988 41.6904 170.527 41.8486 171.195 41.8486C171.811 41.8486 172.303 41.7256 172.672 41.4795C173.047 41.2275 173.234 40.8936 173.234 40.4775ZM180.925 43.1758C179.636 43.1758 178.587 42.7539 177.778 41.9102C176.97 41.0605 176.565 39.9268 176.565 38.5088V38.21C176.565 37.2666 176.744 36.4258 177.102 35.6875C177.465 34.9434 177.969 34.3633 178.613 33.9473C179.264 33.5254 179.967 33.3145 180.723 33.3145C181.959 33.3145 182.92 33.7217 183.605 34.5361C184.291 35.3506 184.634 36.5166 184.634 38.0342V38.7109H178.191C178.215 39.6484 178.487 40.4072 179.009 40.9873C179.536 41.5615 180.204 41.8486 181.013 41.8486C181.587 41.8486 182.073 41.7314 182.472 41.4971C182.87 41.2627 183.219 40.9521 183.518 40.5654L184.511 41.3389C183.714 42.5635 182.519 43.1758 180.925 43.1758ZM180.723 34.6504C180.066 34.6504 179.516 34.8906 179.07 35.3711C178.625 35.8457 178.35 36.5137 178.244 37.375H183.008V37.252C182.961 36.4258 182.738 35.7871 182.34 35.3359C181.941 34.8789 181.402 34.6504 180.723 34.6504ZM189.178 38.5967L188.158 39.6602V43H186.532V29.5H188.158V37.665L189.028 36.6191L191.99 33.4902H193.968L190.268 37.4629L194.398 43H192.491L189.178 38.5967ZM201.184 40.4775C201.184 40.0381 201.017 39.6982 200.683 39.458C200.355 39.2119 199.777 39.001 198.951 38.8252C198.131 38.6494 197.478 38.4385 196.991 38.1924C196.511 37.9463 196.153 37.6533 195.919 37.3135C195.69 36.9736 195.576 36.5693 195.576 36.1006C195.576 35.3213 195.904 34.6621 196.561 34.123C197.223 33.584 198.066 33.3145 199.092 33.3145C200.17 33.3145 201.043 33.5928 201.711 34.1494C202.385 34.7061 202.722 35.418 202.722 36.2852H201.087C201.087 35.8398 200.897 35.4561 200.516 35.1338C200.141 34.8115 199.666 34.6504 199.092 34.6504C198.5 34.6504 198.037 34.7793 197.703 35.0371C197.369 35.2949 197.202 35.6318 197.202 36.0479C197.202 36.4404 197.357 36.7363 197.668 36.9355C197.979 37.1348 198.538 37.3252 199.347 37.5068C200.161 37.6885 200.82 37.9053 201.324 38.1572C201.828 38.4092 202.2 38.7139 202.44 39.0713C202.687 39.4229 202.81 39.8535 202.81 40.3633C202.81 41.2129 202.47 41.8955 201.79 42.4111C201.11 42.9209 200.229 43.1758 199.145 43.1758C198.383 43.1758 197.709 43.041 197.123 42.7715C196.537 42.502 196.077 42.127 195.743 41.6465C195.415 41.1602 195.251 40.6357 195.251 40.0732H196.877C196.906 40.6182 197.123 41.0518 197.527 41.374C197.938 41.6904 198.477 41.8486 199.145 41.8486C199.76 41.8486 200.252 41.7256 200.621 41.4795C200.996 41.2275 201.184 40.8936 201.184 40.4775ZM96.3125 61.4775C96.3125 61.0381 96.1455 60.6982 95.8116 60.458C95.4834 60.2119 94.9063 60.001 94.0801 59.8252C93.2598 59.6494 92.6065 59.4385 92.1201 59.1924C91.6397 58.9463 91.2823 58.6533 91.0479 58.3135C90.8194 57.9736 90.7051 57.5693 90.7051 57.1006C90.7051 56.3213 91.0332 55.6621 91.6895 55.123C92.3516 54.584 93.1953 54.3145 94.2207 54.3145C95.2989 54.3145 96.1719 54.5928 96.8399 55.1494C97.5137 55.7061 97.8506 56.418 97.8506 57.2852H96.2159C96.2159 56.8398 96.0254 56.4561 95.6446 56.1338C95.2696 55.8115 94.795 55.6504 94.2207 55.6504C93.6289 55.6504 93.166 55.7793 92.8321 56.0371C92.4981 56.2949 92.3311 56.6318 92.3311 57.0479C92.3311 57.4404 92.4864 57.7363 92.7969 57.9355C93.1075 58.1348 93.667 58.3252 94.4756 58.5068C95.2901 58.6885 95.9492 58.9053 96.4532 59.1572C96.9571 59.4092 97.3291 59.7139 97.5694 60.0713C97.8155 60.4229 97.9385 60.8535 97.9385 61.3633C97.9385 62.2129 97.5987 62.8955 96.919 63.4111C96.2393 63.9209 95.3575 64.1758 94.2735 64.1758C93.5117 64.1758 92.8379 64.041 92.252 63.7715C91.666 63.502 91.2061 63.127 90.8721 62.6465C90.544 62.1602 90.3799 61.6357 90.3799 61.0732H92.0059C92.0352 61.6182 92.252 62.0518 92.6563 62.374C93.0664 62.6904 93.6055 62.8486 94.2735 62.8486C94.8887 62.8486 95.3809 62.7256 95.75 62.4795C96.125 62.2275 96.3125 61.8936 96.3125 61.4775ZM101.823 64H100.197V54.4902H101.823V64ZM100.065 51.9678C100.065 51.7041 100.145 51.4814 100.303 51.2998C100.467 51.1182 100.707 51.0273 101.023 51.0273C101.34 51.0273 101.58 51.1182 101.744 51.2998C101.908 51.4814 101.99 51.7041 101.99 51.9678C101.99 52.2314 101.908 52.4512 101.744 52.627C101.58 52.8027 101.34 52.8906 101.023 52.8906C100.707 52.8906 100.467 52.8027 100.303 52.627C100.145 52.4512 100.065 52.2314 100.065 51.9678ZM109.971 61.4775C109.971 61.0381 109.804 60.6982 109.47 60.458C109.142 60.2119 108.564 60.001 107.738 59.8252C106.918 59.6494 106.265 59.4385 105.778 59.1924C105.298 58.9463 104.94 58.6533 104.706 58.3135C104.478 57.9736 104.363 57.5693 104.363 57.1006C104.363 56.3213 104.691 55.6621 105.348 55.123C106.01 54.584 106.854 54.3145 107.879 54.3145C108.957 54.3145 109.83 54.5928 110.498 55.1494C111.172 55.7061 111.509 56.418 111.509 57.2852H109.874C109.874 56.8398 109.684 56.4561 109.303 56.1338C108.928 55.8115 108.453 55.6504 107.879 55.6504C107.287 55.6504 106.824 55.7793 106.49 56.0371C106.156 56.2949 105.989 56.6318 105.989 57.0479C105.989 57.4404 106.145 57.7363 106.455 57.9355C106.766 58.1348 107.325 58.3252 108.134 58.5068C108.948 58.6885 109.607 58.9053 110.111 59.1572C110.615 59.4092 110.987 59.7139 111.228 60.0713C111.474 60.4229 111.597 60.8535 111.597 61.3633C111.597 62.2129 111.257 62.8955 110.577 63.4111C109.897 63.9209 109.016 64.1758 107.932 64.1758C107.17 64.1758 106.496 64.041 105.91 63.7715C105.324 63.502 104.864 63.127 104.53 62.6465C104.202 62.1602 104.038 61.6357 104.038 61.0732H105.664C105.693 61.6182 105.91 62.0518 106.314 62.374C106.725 62.6904 107.264 62.8486 107.932 62.8486C108.547 62.8486 109.039 62.7256 109.408 62.4795C109.783 62.2275 109.971 61.8936 109.971 61.4775ZM117.661 64.1758C116.372 64.1758 115.323 63.7539 114.515 62.9102C113.706 62.0605 113.302 60.9268 113.302 59.5088V59.21C113.302 58.2666 113.48 57.4258 113.838 56.6875C114.201 55.9434 114.705 55.3633 115.35 54.9473C116 54.5254 116.703 54.3145 117.459 54.3145C118.695 54.3145 119.656 54.7217 120.342 55.5361C121.027 56.3506 121.37 57.5166 121.37 59.0342V59.7109H114.928C114.951 60.6484 115.224 61.4072 115.745 61.9873C116.272 62.5615 116.94 62.8486 117.749 62.8486C118.323 62.8486 118.81 62.7314 119.208 62.4971C119.606 62.2627 119.955 61.9521 120.254 61.5654L121.247 62.3389C120.45 63.5635 119.255 64.1758 117.661 64.1758ZM117.459 55.6504C116.803 55.6504 116.252 55.8906 115.807 56.3711C115.361 56.8457 115.086 57.5137 114.98 58.375H119.744V58.252C119.697 57.4258 119.475 56.7871 119.076 56.3359C118.678 55.8789 118.139 55.6504 117.459 55.6504ZM128.797 61.4775C128.797 61.0381 128.63 60.6982 128.296 60.458C127.968 60.2119 127.391 60.001 126.564 59.8252C125.744 59.6494 125.091 59.4385 124.605 59.1924C124.124 58.9463 123.767 58.6533 123.532 58.3135C123.304 57.9736 123.189 57.5693 123.189 57.1006C123.189 56.3213 123.518 55.6621 124.174 55.123C124.836 54.584 125.68 54.3145 126.705 54.3145C127.783 54.3145 128.656 54.5928 129.324 55.1494C129.998 55.7061 130.335 56.418 130.335 57.2852H128.7C128.7 56.8398 128.51 56.4561 128.129 56.1338C127.754 55.8115 127.279 55.6504 126.705 55.6504C126.113 55.6504 125.65 55.7793 125.316 56.0371C124.982 56.2949 124.815 56.6318 124.815 57.0479C124.815 57.4404 124.971 57.7363 125.281 57.9355C125.592 58.1348 126.151 58.3252 126.96 58.5068C127.774 58.6885 128.434 58.9053 128.938 59.1572C129.441 59.4092 129.814 59.7139 130.054 60.0713C130.3 60.4229 130.423 60.8535 130.423 61.3633C130.423 62.2129 130.083 62.8955 129.403 63.4111C128.724 63.9209 127.842 64.1758 126.758 64.1758C125.996 64.1758 125.322 64.041 124.736 63.7715C124.15 63.502 123.69 63.127 123.356 62.6465C123.028 62.1602 122.864 61.6357 122.864 61.0732H124.49C124.52 61.6182 124.736 62.0518 125.141 62.374C125.551 62.6904 126.09 62.8486 126.758 62.8486C127.373 62.8486 127.865 62.7256 128.234 62.4795C128.609 62.2275 128.797 61.8936 128.797 61.4775ZM134.747 52.1875V54.4902H136.522V55.7471H134.747V61.6445C134.747 62.0254 134.826 62.3125 134.984 62.5059C135.143 62.6934 135.412 62.7871 135.793 62.7871C135.98 62.7871 136.238 62.752 136.566 62.6816V64C136.139 64.1172 135.723 64.1758 135.318 64.1758C134.592 64.1758 134.044 63.9561 133.675 63.5166C133.306 63.0771 133.121 62.4531 133.121 61.6445V55.7471H131.39V54.4902H133.121V52.1875H134.747ZM144.301 64C144.207 63.8125 144.131 63.4785 144.072 62.998C143.316 63.7832 142.414 64.1758 141.365 64.1758C140.428 64.1758 139.657 63.9121 139.054 63.3848C138.456 62.8516 138.157 62.1777 138.157 61.3633C138.157 60.373 138.532 59.6055 139.282 59.0605C140.038 58.5098 141.099 58.2344 142.464 58.2344H144.046V57.4873C144.046 56.9189 143.876 56.4678 143.536 56.1338C143.196 55.7939 142.695 55.624 142.033 55.624C141.453 55.624 140.967 55.7705 140.574 56.0635C140.182 56.3564 139.985 56.7109 139.985 57.127H138.351C138.351 56.6523 138.518 56.1953 138.852 55.7559C139.191 55.3105 139.648 54.959 140.223 54.7012C140.803 54.4434 141.439 54.3145 142.13 54.3145C143.226 54.3145 144.084 54.5898 144.705 55.1406C145.326 55.6855 145.648 56.4385 145.672 57.3994V61.7764C145.672 62.6494 145.783 63.3438 146.006 63.8594V64H144.301ZM141.603 62.7607C142.112 62.7607 142.596 62.6289 143.053 62.3652C143.51 62.1016 143.841 61.7588 144.046 61.3369V59.3857H142.772C140.779 59.3857 139.783 59.9688 139.783 61.1348C139.783 61.6445 139.953 62.043 140.293 62.3301C140.633 62.6172 141.069 62.7607 141.603 62.7607ZM56.3662 75.4902L56.4102 76.5449C57.1075 75.7246 58.0479 75.3145 59.2315 75.3145C60.5616 75.3145 61.4668 75.8242 61.9473 76.8438C62.2637 76.3867 62.6739 76.0176 63.1778 75.7363C63.6875 75.4551 64.2881 75.3145 64.9795 75.3145C67.0655 75.3145 68.126 76.4189 68.1612 78.6279V85H66.5352V78.7246C66.5352 78.0449 66.3799 77.5381 66.0694 77.2041C65.7588 76.8643 65.2373 76.6943 64.5049 76.6943C63.9014 76.6943 63.4004 76.876 63.002 77.2393C62.6035 77.5967 62.3721 78.0801 62.3076 78.6895V85H60.6729V78.7686C60.6729 77.3857 59.9961 76.6943 58.6426 76.6943C57.5762 76.6943 56.8467 77.1484 56.4541 78.0566V85H54.8282V75.4902H56.3662ZM76.4932 85C76.3994 84.8125 76.3233 84.4785 76.2647 83.998C75.5088 84.7832 74.6065 85.1758 73.5576 85.1758C72.6201 85.1758 71.8496 84.9121 71.2461 84.3848C70.6485 83.8516 70.3496 83.1777 70.3496 82.3633C70.3496 81.373 70.7246 80.6055 71.4746 80.0605C72.2305 79.5098 73.291 79.2344 74.6563 79.2344H76.2383V78.4873C76.2383 77.9189 76.0684 77.4678 75.7285 77.1338C75.3887 76.7939 74.8877 76.624 74.2256 76.624C73.6455 76.624 73.1592 76.7705 72.7666 77.0635C72.3741 77.3564 72.1778 77.7109 72.1778 78.127H70.543C70.543 77.6523 70.71 77.1953 71.044 76.7559C71.3838 76.3105 71.8409 75.959 72.4151 75.7012C72.9951 75.4434 73.6309 75.3145 74.3223 75.3145C75.418 75.3145 76.2764 75.5898 76.8975 76.1406C77.5186 76.6855 77.8409 77.4385 77.8643 78.3994V82.7764C77.8643 83.6494 77.9756 84.3438 78.1983 84.8594V85H76.4932ZM73.795 83.7607C74.3047 83.7607 74.7881 83.6289 75.2451 83.3652C75.7022 83.1016 76.0332 82.7588 76.2383 82.3369V80.3857H74.9639C72.9717 80.3857 71.9756 80.9688 71.9756 82.1348C71.9756 82.6445 72.1455 83.043 72.4854 83.3301C72.8252 83.6172 73.2617 83.7607 73.795 83.7607ZM71.668 72.9502C71.668 72.6865 71.7471 72.4668 71.9053 72.291C72.0694 72.1094 72.3096 72.0186 72.626 72.0186C72.9424 72.0186 73.1826 72.1094 73.3467 72.291C73.5108 72.4668 73.5928 72.6865 73.5928 72.9502C73.5928 73.2139 73.5108 73.4336 73.3467 73.6094C73.1826 73.7852 72.9424 73.873 72.626 73.873C72.3096 73.873 72.0694 73.7852 71.9053 73.6094C71.7471 73.4336 71.668 73.2139 71.668 72.9502ZM75.4473 72.9678C75.4473 72.7041 75.5264 72.4814 75.6846 72.2998C75.8487 72.1182 76.0889 72.0273 76.4053 72.0273C76.7217 72.0273 76.9619 72.1182 77.126 72.2998C77.2901 72.4814 77.3721 72.7041 77.3721 72.9678C77.3721 73.2314 77.2901 73.4512 77.126 73.627C76.9619 73.8027 76.7217 73.8906 76.4053 73.8906C76.0889 73.8906 75.8487 73.8027 75.6846 73.627C75.5264 73.4512 75.4473 73.2314 75.4473 72.9678ZM81.9512 75.4902L82.0039 76.6855C82.7305 75.7715 83.6797 75.3145 84.8516 75.3145C86.8614 75.3145 87.875 76.4482 87.8926 78.7158V85H86.2666V78.707C86.2608 78.0215 86.1026 77.5146 85.792 77.1865C85.4873 76.8584 85.0098 76.6943 84.3594 76.6943C83.8321 76.6943 83.3692 76.835 82.9707 77.1162C82.5723 77.3975 82.2617 77.7666 82.0391 78.2236V85H80.4131V75.4902H81.9512ZM89.958 80.166C89.958 78.6836 90.3008 77.5059 90.9864 76.6328C91.6719 75.7539 92.5801 75.3145 93.711 75.3145C94.8711 75.3145 95.7764 75.7246 96.4268 76.5449L96.5059 75.4902H97.9912V84.7715C97.9912 86.002 97.625 86.9717 96.8926 87.6807C96.166 88.3896 95.1875 88.7441 93.9571 88.7441C93.2715 88.7441 92.6006 88.5977 91.9444 88.3047C91.2881 88.0117 90.7871 87.6104 90.4414 87.1006L91.2852 86.125C91.9825 86.9863 92.835 87.417 93.8428 87.417C94.6338 87.417 95.2491 87.1943 95.6885 86.749C96.1338 86.3037 96.3565 85.6768 96.3565 84.8682V84.0508C95.7061 84.8008 94.8184 85.1758 93.6934 85.1758C92.5801 85.1758 91.6778 84.7275 90.9864 83.8311C90.3008 82.9346 89.958 81.7129 89.958 80.166ZM91.5928 80.3506C91.5928 81.4229 91.8125 82.2666 92.252 82.8818C92.6914 83.4912 93.3067 83.7959 94.0977 83.7959C95.1231 83.7959 95.876 83.3301 96.3565 82.3984V78.0566C95.8584 77.1484 95.1114 76.6943 94.1153 76.6943C93.3242 76.6943 92.7061 77.002 92.2608 77.6172C91.8155 78.2324 91.5928 79.1436 91.5928 80.3506ZM102.219 85H100.593V75.4902H102.219V85ZM100.461 72.9678C100.461 72.7041 100.54 72.4814 100.698 72.2998C100.862 72.1182 101.103 72.0273 101.419 72.0273C101.735 72.0273 101.976 72.1182 102.14 72.2998C102.304 72.4814 102.386 72.7041 102.386 72.9678C102.386 73.2314 102.304 73.4512 102.14 73.627C101.976 73.8027 101.735 73.8906 101.419 73.8906C101.103 73.8906 100.862 73.8027 100.698 73.627C100.54 73.4512 100.461 73.2314 100.461 72.9678ZM106.508 75.4902V86.0986C106.508 87.9268 105.679 88.8408 104.021 88.8408C103.663 88.8408 103.332 88.7881 103.027 88.6826V87.3818C103.215 87.4287 103.461 87.4521 103.766 87.4521C104.129 87.4521 104.404 87.3525 104.592 87.1533C104.785 86.96 104.882 86.6201 104.882 86.1338V75.4902H106.508ZM104.715 72.9678C104.715 72.71 104.794 72.4902 104.952 72.3086C105.116 72.1211 105.354 72.0273 105.664 72.0273C105.98 72.0273 106.221 72.1182 106.385 72.2998C106.549 72.4814 106.631 72.7041 106.631 72.9678C106.631 73.2314 106.549 73.4512 106.385 73.627C106.221 73.8027 105.98 73.8906 105.664 73.8906C105.348 73.8906 105.11 73.8027 104.952 73.627C104.794 73.4512 104.715 73.2314 104.715 72.9678ZM115.007 85C114.913 84.8125 114.837 84.4785 114.778 83.998C114.022 84.7832 113.12 85.1758 112.071 85.1758C111.134 85.1758 110.363 84.9121 109.76 84.3848C109.162 83.8516 108.863 83.1777 108.863 82.3633C108.863 81.373 109.238 80.6055 109.988 80.0605C110.744 79.5098 111.805 79.2344 113.17 79.2344H114.752V78.4873C114.752 77.9189 114.582 77.4678 114.242 77.1338C113.902 76.7939 113.401 76.624 112.739 76.624C112.159 76.624 111.673 76.7705 111.28 77.0635C110.888 77.3564 110.691 77.7109 110.691 78.127H109.057C109.057 77.6523 109.224 77.1953 109.558 76.7559C109.897 76.3105 110.355 75.959 110.929 75.7012C111.509 75.4434 112.145 75.3145 112.836 75.3145C113.932 75.3145 114.79 75.5898 115.411 76.1406C116.032 76.6855 116.355 77.4385 116.378 78.3994V82.7764C116.378 83.6494 116.489 84.3438 116.712 84.8594V85H115.007ZM112.309 83.7607C112.818 83.7607 113.302 83.6289 113.759 83.3652C114.216 83.1016 114.547 82.7588 114.752 82.3369V80.3857H113.478C111.485 80.3857 110.489 80.9688 110.489 82.1348C110.489 82.6445 110.659 83.043 110.999 83.3301C111.339 83.6172 111.775 83.7607 112.309 83.7607ZM121.133 73.1875V75.4902H122.908V76.7471H121.133V82.6445C121.133 83.0254 121.212 83.3125 121.37 83.5059C121.528 83.6934 121.798 83.7871 122.179 83.7871C122.366 83.7871 122.624 83.752 122.952 83.6816V85C122.524 85.1172 122.108 85.1758 121.704 85.1758C120.978 85.1758 120.43 84.9561 120.061 84.5166C119.691 84.0771 119.507 83.4531 119.507 82.6445V76.7471H117.775V75.4902H119.507V73.1875H121.133ZM128.762 85.1758C127.473 85.1758 126.424 84.7539 125.615 83.9102C124.807 83.0605 124.402 81.9268 124.402 80.5088V80.21C124.402 79.2666 124.581 78.4258 124.939 77.6875C125.302 76.9434 125.806 76.3633 126.45 75.9473C127.101 75.5254 127.804 75.3145 128.56 75.3145C129.796 75.3145 130.757 75.7217 131.442 76.5361C132.128 77.3506 132.471 78.5166 132.471 80.0342V80.7109H126.028C126.052 81.6484 126.324 82.4072 126.846 82.9873C127.373 83.5615 128.041 83.8486 128.85 83.8486C129.424 83.8486 129.91 83.7314 130.309 83.4971C130.707 83.2627 131.056 82.9521 131.355 82.5654L132.348 83.3389C131.551 84.5635 130.355 85.1758 128.762 85.1758ZM128.56 76.6504C127.903 76.6504 127.353 76.8906 126.907 77.3711C126.462 77.8457 126.187 78.5137 126.081 79.375H130.845V79.252C130.798 78.4258 130.575 77.7871 130.177 77.3359C129.778 76.8789 129.239 76.6504 128.56 76.6504ZM140.363 75.4902L140.416 76.6855C141.143 75.7715 142.092 75.3145 143.264 75.3145C145.273 75.3145 146.287 76.4482 146.305 78.7158V85H144.679V78.707C144.673 78.0215 144.515 77.5146 144.204 77.1865C143.899 76.8584 143.422 76.6943 142.772 76.6943C142.244 76.6943 141.781 76.835 141.383 77.1162C140.984 77.3975 140.674 77.7666 140.451 78.2236V85H138.825V75.4902H140.363ZM150.523 85H148.897V75.4902H150.523V85ZM148.766 72.9678C148.766 72.7041 148.845 72.4814 149.003 72.2998C149.167 72.1182 149.407 72.0273 149.724 72.0273C150.04 72.0273 150.28 72.1182 150.444 72.2998C150.608 72.4814 150.69 72.7041 150.69 72.9678C150.69 73.2314 150.608 73.4512 150.444 73.627C150.28 73.8027 150.04 73.8906 149.724 73.8906C149.407 73.8906 149.167 73.8027 149.003 73.627C148.845 73.4512 148.766 73.2314 148.766 72.9678ZM154.663 75.4902L154.707 76.5449C155.404 75.7246 156.345 75.3145 157.528 75.3145C158.858 75.3145 159.764 75.8242 160.244 76.8438C160.561 76.3867 160.971 76.0176 161.475 75.7363C161.984 75.4551 162.585 75.3145 163.276 75.3145C165.362 75.3145 166.423 76.4189 166.458 78.6279V85H164.832V78.7246C164.832 78.0449 164.677 77.5381 164.366 77.2041C164.056 76.8643 163.534 76.6943 162.802 76.6943C162.198 76.6943 161.697 76.876 161.299 77.2393C160.9 77.5967 160.669 78.0801 160.605 78.6895V85H158.97V78.7686C158.97 77.3857 158.293 76.6943 156.939 76.6943C155.873 76.6943 155.144 77.1484 154.751 78.0566V85H153.125V75.4902H154.663ZM172.865 85.1758C171.576 85.1758 170.527 84.7539 169.719 83.9102C168.91 83.0605 168.506 81.9268 168.506 80.5088V80.21C168.506 79.2666 168.685 78.4258 169.042 77.6875C169.405 76.9434 169.909 76.3633 170.554 75.9473C171.204 75.5254 171.907 75.3145 172.663 75.3145C173.899 75.3145 174.86 75.7217 175.546 76.5361C176.231 77.3506 176.574 78.5166 176.574 80.0342V80.7109H170.132C170.155 81.6484 170.428 82.4072 170.949 82.9873C171.477 83.5615 172.145 83.8486 172.953 83.8486C173.527 83.8486 174.014 83.7314 174.412 83.4971C174.811 83.2627 175.159 82.9521 175.458 82.5654L176.451 83.3389C175.654 84.5635 174.459 85.1758 172.865 85.1758ZM172.663 76.6504C172.007 76.6504 171.456 76.8906 171.011 77.3711C170.565 77.8457 170.29 78.5137 170.185 79.375H174.948V79.252C174.901 78.4258 174.679 77.7871 174.28 77.3359C173.882 76.8789 173.343 76.6504 172.663 76.6504ZM178.068 80.166C178.068 78.707 178.414 77.5352 179.105 76.6504C179.797 75.7598 180.702 75.3145 181.821 75.3145C182.935 75.3145 183.816 75.6953 184.467 76.457V71.5H186.093V85H184.599L184.52 83.9805C183.869 84.7773 182.964 85.1758 181.804 85.1758C180.702 85.1758 179.803 84.7246 179.105 83.8223C178.414 82.9199 178.068 81.7422 178.068 80.2891V80.166ZM179.694 80.3506C179.694 81.4287 179.917 82.2725 180.362 82.8818C180.808 83.4912 181.423 83.7959 182.208 83.7959C183.239 83.7959 183.992 83.333 184.467 82.4072V78.0391C183.98 77.1426 183.233 76.6943 182.226 76.6943C181.429 76.6943 180.808 77.002 180.362 77.6172C179.917 78.2324 179.694 79.1436 179.694 80.3506Z" fill="black"/>
</svg>
